<?xml version="1.0" encoding="UTF-8"?>
<svg width="20px" height="23px" viewBox="0 0 20 23" version="1.1" xmlns="http://www.w3.org/2000/svg" xmlns:xlink="http://www.w3.org/1999/xlink">
    <title>形状</title>
    <g id="区块链备份" stroke="none" stroke-width="1" fill="none" fill-rule="evenodd">
        <g id="画板" transform="translate(-620.000000, -607.000000)" fill="#F6F6F6" fill-rule="nonzero">
            <g id="column-3" transform="translate(628.500000, 620.250000) rotate(-270.000000) translate(-628.500000, -620.250000) translate(615.750000, 607.750000)">
                <path d="M20.1219666,1.5 L1.87803344,1.5 C0.858528856,1.5 0,2.32163697 0,3.2973038 L0,18.7026962 C0,19.678363 0.858528856,20.5 1.87803344,20.5 L20.1219666,20.5 C21.1414711,20.5 22,19.678363 22,18.7026962 L22,3.2973038 C22,2.32163697 21.1414711,1.5 20.1219666,1.5 Z M13.9512134,3.04053924 L13.9512134,18.9594608 L8.04878662,18.9594608 L8.04878662,3.04053924 L13.9512134,3.04053924 L13.9512134,3.04053924 Z M1.60975732,18.7026962 L1.60975732,3.2973038 C1.60975732,3.14324988 1.71705771,3.04053924 1.87803344,3.04053924 L6.4390293,3.04053924 L6.4390293,18.9594608 L1.87803344,18.9594608 C1.71705771,18.9594608 1.60975732,18.8567501 1.60975732,18.7026962 L1.60975732,18.7026962 Z M20.1219666,3.04053924 C20.2829423,3.04053924 20.3902427,3.14324988 20.3902427,3.2973038 L20.3902427,18.7026962 C20.3902427,18.8567501 20.2829423,18.9594608 20.1219666,18.9594608 L15.5609707,18.9594608 L15.5609707,3.04053924 L20.1219666,3.04053924 Z M10.5,15 C11.0522847,15 11.5,15.4477153 11.5,16 C11.5,16.5522847 11.0522847,17 10.5,17 C9.94771525,17 9.5,16.5522847 9.5,16 C9.5,15.4477153 9.94771525,15 10.5,15 Z M3.5,15 C4.05228475,15 4.5,15.4477153 4.5,16 C4.5,16.5522847 4.05228475,17 3.5,17 C2.94771525,17 2.5,16.5522847 2.5,16 C2.5,15.4477153 2.94771525,15 3.5,15 Z" id="形状"></path>
            </g>
        </g>
    </g>
</svg>