<?xml version="1.0" encoding="UTF-8"?>
<svg width="29px" height="33px" viewBox="0 0 29 33" version="1.1" xmlns="http://www.w3.org/2000/svg" xmlns:xlink="http://www.w3.org/1999/xlink">
    <title>txt 3</title>
    <g id="区块链备份" stroke="none" stroke-width="1" fill="none" fill-rule="evenodd">
        <g id="画板" transform="translate(-787.000000, -646.000000)" fill-rule="nonzero">
            <g id="txt" transform="translate(787.000000, 646.000000)">
                <path d="M2.59856631,0 C1.24731183,0 0,1.134375 0,2.578125 L0,30.421875 C0,31.865625 1.14336918,33 2.59856631,33 L26.4014337,33 C27.8566308,33 29,31.865625 29,30.421875 L29,10.415625 L19.2293907,0 L2.59856631,0 Z" id="路径" fill="#31A2E4"></path>
                <path d="M19.0820309,0 L29,10.547099 L22.2140211,10.547099 C19.6040293,10.547099 19.0820309,8.45856452 19.0820309,7.51872402 L19.0820309,0 Z M7.98,27.28 L8.65,20.99 L9.79,25.74 C10.19,25.7333333 10.61,25.73 11.05,25.73 L13.18,20.99 L12.52,27.28 L13.5,27.28 L14.4,18.72 L13.23,18.72 L10.53,24.74 L9.07,18.72 L7.9,18.72 L7,27.28 L7.98,27.28 Z M18.89,27.28 L20.41,25.9 L21.02,20.11 L19.79,18.72 L15.79,18.72 L15.72,19.4 L15,26.35 L14.99,26.35 L14.9,27.28 L18.89,27.28 Z M18.7,26.35 L15.98,26.35 L16.67,19.66 L19.4,19.66 L20.02,20.35 L19.46,25.65 L18.7,26.35 Z" id="形状" fill="#FFFFFF"></path>
            </g>
        </g>
    </g>
</svg>