<?xml version="1.0" encoding="UTF-8"?>
<svg width="29px" height="33px" viewBox="0 0 29 33" version="1.1" xmlns="http://www.w3.org/2000/svg" xmlns:xlink="http://www.w3.org/1999/xlink">
    <title>mp4</title>
    <g id="区块链备份" stroke="none" stroke-width="1" fill="none" fill-rule="evenodd">
        <g id="画板" transform="translate(-821.000000, -487.000000)" fill-rule="nonzero">
            <g id="mp4" transform="translate(821.000000, 487.000000)">
                <path d="M2.69285714,0 C1.24285714,0 0,1.134375 0,2.578125 L0,30.31875 C0,31.865625 1.24285714,33 2.69285714,33 L26.4107143,33 C27.8607143,33 29,31.865625 29,30.421875 L29,10.415625 L19.1607143,0 L2.69285714,0 Z" id="路径" fill="#FCB44A"></path>
                <path d="M29,10.5454545 L29,11 L22.1932044,11 C22.1932044,11 18.8961627,10.4545455 19.0025189,8 C19.0025189,8 19.1088751,10.5454545 22.1932044,10.5454545 L29,10.5454545 Z" id="路径" fill="#0D3A6B"></path>
                <path d="M11.3567387,21.2244566 C11.5256197,21.2244566 11.6709437,21.2788551 11.7887292,21.3868152 C11.8972245,21.4864064 11.9692229,21.6311901 12.0060516,21.8193252 L12.0146781,21.8671959 L12.8511205,27.3719901 L12.8572586,27.4223715 C12.869369,27.5442242 12.8622355,27.65821 12.8351946,27.7638268 C12.7965411,27.9153057 12.6621661,27.9924679 12.4529726,28 C12.3174364,28 12.2124249,27.9571507 12.1454033,27.8686067 C12.0913216,27.796968 12.0525022,27.6890079 12.0256272,27.5422156 L12.0178301,27.497023 L11.4791692,23.7582554 L11.4094933,23.318046 C11.3866111,23.1678467 11.3562135,23.0189113 11.3184169,22.8718108 C11.308282,22.8325801 11.2960994,22.7939172 11.28192,22.7559838 L11.2727958,22.7337223 L11.2659941,22.7186581 L11.2547133,22.7504603 L11.2494046,22.7668635 L9.85737997,27.6013008 L9.84626501,27.6409698 C9.81408139,27.7507711 9.7739348,27.8342938 9.72350273,27.8920399 C9.65946728,27.965185 9.56407767,28 9.44297435,28 C9.31689418,28 9.22100689,27.9698716 9.15929396,27.903087 C9.11035494,27.8501949 9.0690471,27.7641615 9.03188663,27.6439827 L9.0196104,27.6024724 C8.78594344,26.801905 8.54915419,26.0022686 8.30924816,25.2035819 C8.06963694,24.4060594 7.83880753,23.6058778 7.61680257,22.803185 C7.60570588,22.7628522 7.59179117,22.7233633 7.57516294,22.6850147 L7.5665364,22.6676072 L7.5632185,22.6769805 C7.55665095,22.6974829 7.55116867,22.7183233 7.5467949,22.7394132 L7.54181805,22.7645202 L7.5368412,22.7919705 L6.84240488,27.5268167 C6.82083853,27.6590469 6.78351216,27.765668 6.72909861,27.8461778 C6.65892504,27.9506229 6.53533329,28 6.36794527,28 C6.08326951,28 5.96150261,27.805337 6.01060752,27.4712465 L6.01657974,27.434925 L6.86927986,21.8104541 C6.90013632,21.6293489 6.96549894,21.4880802 7.06735845,21.3886564 C7.17950344,21.2790225 7.3258228,21.2244566 7.50133968,21.2244566 C7.67387044,21.2244566 7.82068748,21.2708209 7.93814112,21.3642189 C8.04680232,21.450587 8.13190644,21.5918558 8.19693727,21.7881925 L8.21286318,21.8384065 L9.4512691,26.2468616 L10.6639613,21.828029 L10.6777306,21.7816647 C10.737121,21.5908515 10.8200685,21.4510892 10.9292273,21.3642189 C11.0465151,21.2709883 11.1901801,21.2244566 11.3567387,21.2244566 L11.3567387,21.2244566 Z M15.6865973,21.3275627 L15.7615818,21.3282322 C16.4427465,21.3392793 16.9545325,21.5031444 17.2941195,21.8235097 C17.6474757,22.1569307 17.8219972,22.6771478 17.8219972,23.3796418 C17.8219972,24.7434542 17.1209251,25.4484589 15.7478125,25.4687119 L15.6859337,25.469214 L14.5054251,25.469214 L14.5054251,27.5435547 L14.5042638,27.5845628 C14.4977939,27.7020636 14.4642832,27.7988092 14.4019066,27.8724564 C14.3280834,27.9591593 14.2122887,28 14.060163,28 C13.9005721,28 13.7804641,27.9549748 13.7068067,27.8600703 C13.6467528,27.7825733 13.6135738,27.6893427 13.6067721,27.5822195 L13.6056108,27.5413787 L13.6056108,21.8599986 L13.6062744,21.8179862 C13.6114171,21.6388896 13.6499048,21.5116807 13.7305297,21.4382009 C13.8098275,21.3657254 13.9546538,21.332082 14.1706491,21.3280648 L14.218095,21.3275627 L15.6865973,21.3275627 L15.6865973,21.3275627 Z M21.8359918,21.2150833 C21.9866245,21.2150833 22.1019215,21.2703187 22.1710997,21.3807896 C22.2299924,21.4753593 22.2586922,21.6330313 22.2623419,21.8586595 L22.2626737,21.9080366 L22.2626737,25.6767653 L22.6097259,25.6767653 L22.6379281,25.6777695 C22.8438037,25.6918295 22.9501424,25.8443127 22.9501424,26.0978934 C22.9501424,26.3539848 22.8411494,26.5059659 22.6346102,26.5181846 L22.6070716,26.5190215 L22.2626737,26.5190215 L22.2626737,27.5991248 L22.2620101,27.6339399 C22.2570332,27.762153 22.2250155,27.8557184 22.1576622,27.9109538 C22.0894793,27.9668588 21.9773343,27.9906267 21.8174116,27.9906267 C21.661968,27.9906267 21.5503207,27.9625069 21.481972,27.8977308 C21.4192637,27.8383109 21.3874118,27.7492647 21.3822691,27.6332704 L21.3814396,27.5976184 L21.3814396,26.5190215 L18.8614951,26.5190215 L18.8249982,26.5181846 C18.5869389,26.5074723 18.435145,26.3918127 18.3908511,26.1753904 C18.37675,26.0757992 18.3870355,25.9616461 18.4207122,25.8329308 C18.451071,25.7160996 18.51577,25.578011 18.6143116,25.4171588 L18.6448363,25.3682839 L20.6604601,22.2195309 L20.7004408,22.1554243 C20.862852,21.9000024 21.0179638,21.7034982 21.1666056,21.5652423 C21.3188972,21.4239736 21.5143215,21.3148418 21.7522149,21.2371775 L21.8127665,21.2184309 L21.8359918,21.2150833 L21.8359918,21.2150833 Z M21.3814396,22.5539561 L19.4315102,25.6767653 L21.3814396,25.6767653 L21.3814396,22.5539561 Z M15.6859337,22.1510724 L14.5054251,22.1510724 L14.5054251,24.6644509 L15.6859337,24.6644509 C16.1421448,24.6644509 16.4611608,24.5620143 16.6474609,24.3626647 C16.835254,24.1618087 16.9314731,23.8382631 16.9314731,23.3890151 C16.9314731,22.9421104 16.8246367,22.627436 16.6154432,22.4391334 C16.4137149,22.2575261 16.1250576,22.1609478 15.7464853,22.1517419 L15.6859337,22.1510724 L15.6859337,22.1510724 Z M19.1499864,0 L29,10.6704766 L22.260517,10.6704766 C19.6684082,10.6704766 19.1499864,8.57822625 19.1499864,7.63671361 L19.1499864,0 Z" id="形状" fill="#FFFFFF"></path>
            </g>
        </g>
    </g>
</svg>