<?xml version="1.0" encoding="utf-8"?>
<!-- Generator: Adobe Illustrator 27.6.1, SVG Export Plug-In . SVG Version: 6.00 Build 0)  -->
<svg version="1.1" xmlns="http://www.w3.org/2000/svg" xmlns:xlink="http://www.w3.org/1999/xlink" x="0px" y="0px"
	 viewBox="0 0 281.8 66.3" style="enable-background:new 0 0 281.8 66.3;" xml:space="preserve">
<style type="text/css">
	.st0{fill:#0034B5;}
	.st1{fill:#4787F0;}
	.st2{fill:#383838;}
</style>
<g id="圖層_2">
</g>
<g id="圖層_1">
	<g>
		<path class="st0" d="M239.5,17.8L224.4,0.7C224,0.3,223.5,0,222.9,0h-18.2c-0.5,0-0.9,0.4-1,0.9c0,0.2,0.1,0.5,0.2,0.6l24.8,28.1
			L239.5,17.8z"/>
		<path class="st0" d="M240.8,43.6l19.2,21.8c0.4,0.5,1,0.7,1.6,0.7h19.2c0.6,0,1-0.4,1-1c0-0.3-0.1-0.5-0.3-0.7l-29.3-33.4
			L240.8,43.6z"/>
		<path class="st1" d="M277.7,0h-17c-0.6,0-1.1,0.2-1.5,0.6l-58,63.9c-0.4,0.4-0.3,1,0,1.3c0.2,0.2,0.4,0.3,0.7,0.3h17.1
			c0.8,0,1.6-0.4,2.2-1L278.6,2c0.4-0.5,0.4-1.3-0.1-1.7C278.3,0.1,278,0,277.7,0z"/>
		<g>
			<path class="st2" d="M74.3,18.3H59.1c-0.6,0-1.1,0.2-1.5,0.6l-7.5,8.3c-0.3,0.3-0.2,0.7,0,1c0.1,0.1,0.3,0.2,0.5,0.2H73
				c3.6,0,6.6,2.6,6.6,5.7v0.1H57.4c-6,0-11.5,7.7-11.5,15.9s5.4,15.9,11.5,15.9h32.4c1.1,0,1.9-0.9,1.9-1.9V34.8
				C91.7,26.5,86,18.3,74.3,18.3z M80,53.9c0,1.1-0.9,2-2,2H61.2c-2.2,0-4.2-3.2-4.2-5.9s1.8-5.9,4.2-5.9h12.3
				c3.6,0,6.6,2.6,6.6,5.7L80,53.9z"/>
			<path class="st2" d="M116.2,28.5c-3.3-0.1-6.2,2.4-6.5,5.7v29.8c0,1.1-0.9,2-2,2H98c-1.1,0-1.9-0.9-1.9-1.9v0V34.3
				c0-8.7,7.1-15.8,15.8-15.8c0,0,0,0,0,0h17.9c0.4,0,0.7,0.3,0.7,0.7c0,0.2-0.1,0.3-0.2,0.5l-7.6,8.4c-0.3,0.3-0.8,0.5-1.3,0.5
				L116.2,28.5z"/>
			<path class="st2" d="M40,0.8h-7.2c-1.4,0-2.6,1.1-2.6,2.6v43.3c0,4.3-3.4,7.7-7.7,7.7H10.6C10,54.4,9.4,54.6,9,55l-8.8,9.7
				c-0.3,0.3-0.3,0.9,0.1,1.2c0.2,0.1,0.4,0.2,0.6,0.2h23c10.3-0.1,18.7-8.5,18.8-18.8V3.5C42.6,2,41.4,0.8,40,0.8z"/>
			<path class="st2" d="M145.7,66.3c-1,0-1.9-0.1-2.9-0.3c-2.4-1.1-4.4-2.9-5.8-5.1c-0.3-0.4-0.6-0.9-0.8-1.4L124.3,31l9.2-10.1
				c0,0,13.8,32.7,13.8,32.8c0.3,0.4,0.7,0.6,1.1,0.5c0.4,0,0.9-0.2,1.1-0.5l14.1-33.4c0.5-1.3,1.8-2.1,3.2-2.1h8.9
				c0.8,0,1.5,0.7,1.5,1.5c0,0.2,0,0.4-0.1,0.6c-3.3,7.8-14.9,35.5-16.6,39.4c-0.2,0.4-0.4,0.8-0.6,1.2c-1.5,2.3-3.5,4-6,5.1
				c-0.9,0.3-1.9,0.4-2.8,0.4L145.7,66.3z"/>
			<path class="st2" d="M181.4,64.1V20.1c0-1.1,0.8-1.9,1.9-1.9c0,0,0,0,0,0h11.3c1.1,0,2,0.9,2,2v44c0,1.1-0.8,1.9-1.9,1.9
				c0,0,0,0,0,0h-11.4C182.3,66.1,181.4,65.2,181.4,64.1C181.4,64.2,181.4,64.2,181.4,64.1z"/>
		</g>
	</g>
</g>
</svg>
